<svg width="74" height="74" viewBox="0 0 74 74" fill="none" xmlns="http://www.w3.org/2000/svg">
<path d="M6.50391 4.56711C3.38203 5.23196 0.708203 7.96359 0.158984 11.0421C0.0433594 11.6347 0 19.8296 0 37.0577C0 58.087 0.0433594 62.3796 0.202344 63.1745C0.722656 65.5738 2.44258 67.7562 4.65391 68.7823C5.31875 69.1003 6.24375 69.4183 6.70625 69.505C7.92031 69.7218 66.0797 69.7218 67.2938 69.505C70.4156 68.9413 73.1328 66.2964 73.7977 63.1745C73.9566 62.3796 74 58.087 74 37.0577C74 19.8296 73.9566 11.6347 73.841 11.0421C73.4219 8.72961 71.6297 6.33039 69.5051 5.28976C67.4383 4.27805 69.5918 4.33586 36.9277 4.35031C12.2129 4.35031 7.28438 4.39367 6.50391 4.56711ZM66.7734 6.93742C68.6523 7.29875 70.1844 8.48391 71.0082 10.2327L71.4707 11.2011L71.5141 16.3609L71.5574 21.5351H37H2.44258L2.48594 16.3609L2.5293 11.2011L2.9918 10.2327C3.78672 8.54172 5.34766 7.29875 7.11094 6.95187C8.02148 6.76398 65.834 6.76398 66.7734 6.93742ZM71.543 43.0413C71.543 64.0706 71.5863 63.0011 70.6324 64.5042C69.9965 65.487 69.2449 66.1374 68.0742 66.6866L67.1348 67.1347H37H6.86523L5.92578 66.6866C4.75508 66.1374 4.00352 65.487 3.36758 64.5042C2.41367 63.0011 2.45703 64.0706 2.45703 43.0413V23.9921H37H71.543V43.0413Z" fill="black" fill-opacity="0.59"/>
<path d="M8.25274 10.4206C5.82462 10.8831 4.48047 13.5714 5.55001 15.8261C6.6918 18.2398 9.88594 18.7601 11.7504 16.8378C12.3574 16.2163 12.8633 14.9878 12.8633 14.164C12.8633 13.2245 12.3574 12.0972 11.6203 11.4179C10.6231 10.4929 9.53907 10.1749 8.25274 10.4206ZM10.016 13.3112C10.4352 13.7593 10.5074 14.2218 10.2473 14.7999C10.0305 15.2769 9.2211 15.6527 8.68633 15.537C7.45782 15.2624 7.24102 13.5425 8.36837 12.9788C9.0043 12.6609 9.49571 12.762 10.016 13.3112Z" fill="black" fill-opacity="0.59"/>
<path d="M19.3672 10.7097C17.9363 11.3457 17.0547 12.7042 17.0547 14.2363C17.0691 17.6472 21.1594 19.3238 23.573 16.9101C25.9867 14.4964 24.2957 10.4062 20.8848 10.4062C20.3211 10.4062 19.7863 10.5218 19.3672 10.7097ZM21.882 13.3113C22.4023 13.9328 22.3879 14.6265 21.8387 15.1902C21.5207 15.4937 21.275 15.6093 20.8848 15.6093C19.6852 15.6093 19.0492 14.0917 19.8875 13.239C20.4656 12.6753 21.3762 12.7042 21.882 13.3113Z" fill="black" fill-opacity="0.59"/>
<path d="M31.3777 10.652C31.0019 10.782 30.4383 11.1723 30.0625 11.548C27.6488 13.9617 29.3254 18.052 32.7363 18.0664C34.8754 18.0664 36.5664 16.3754 36.5664 14.2363C36.5664 11.5625 33.9215 9.75586 31.3777 10.652ZM33.6902 13.2824C34.2539 13.8605 34.2828 14.6844 33.7336 15.2336C32.8808 16.0719 31.3633 15.4359 31.3633 14.2363C31.3633 13.4992 31.9992 12.8633 32.7363 12.8633C33.1266 12.8633 33.3723 12.9789 33.6902 13.2824Z" fill="black" fill-opacity="0.59"/>
<path d="M38.373 31.3921C38.0262 31.7101 37.8383 32.4905 35.468 43.7495C33.1699 54.6616 32.9531 55.8179 33.1266 56.1792C33.5312 57.0175 34.6008 57.1187 35.1355 56.3527C35.309 56.1359 36.2484 51.9011 37.8527 44.2843C39.2113 37.8382 40.3242 32.4616 40.3242 32.3316C40.3242 31.9124 40.0062 31.3921 39.6449 31.2331C39.1246 31.0019 38.7922 31.0452 38.373 31.3921Z" fill="black" fill-opacity="0.59"/>
<path d="M28.4727 36.2339C27.6778 36.7976 20.3645 43.1136 20.2344 43.3593C19.9598 43.8651 20.0754 44.3421 20.5668 44.8335C21.3473 45.614 28.3282 51.5108 28.7184 51.7132C29.152 51.9444 29.9903 51.7132 30.2071 51.3085C30.4672 50.8171 30.3661 50.1812 29.9614 49.7331C29.7301 49.5019 28.1547 48.1288 26.4493 46.6835C24.7438 45.2237 23.3274 43.9952 23.2985 43.9374C23.284 43.8796 24.7293 42.5788 26.5215 41.0612C28.3137 39.5292 29.918 38.1417 30.0625 37.9683C30.4672 37.5347 30.4383 36.7831 29.9903 36.3495C29.5711 35.9304 28.9786 35.887 28.4727 36.2339Z" fill="black" fill-opacity="0.59"/>
<path d="M44.0097 36.3495C43.5617 36.7831 43.5328 37.5347 43.9375 37.9683C44.082 38.1417 45.6863 39.5292 47.4785 41.0612C49.2707 42.5788 50.716 43.8796 50.7015 43.9374C50.6726 43.9952 49.2562 45.2237 47.5507 46.6835C45.8453 48.1288 44.2699 49.5019 44.0531 49.7331C43.634 50.1812 43.5328 50.8171 43.7929 51.3085C44.0097 51.7132 44.848 51.9444 45.2816 51.7132C45.6718 51.5108 52.6527 45.614 53.4332 44.8335C53.9246 44.3421 54.0402 43.8651 53.7656 43.3593C53.6355 43.1136 46.3222 36.7976 45.5273 36.2339C45.0215 35.887 44.4289 35.9304 44.0097 36.3495Z" fill="black" fill-opacity="0.59"/>
</svg>
