<svg width="74" height="74" viewBox="0 0 74 74" fill="none" xmlns="http://www.w3.org/2000/svg">
<g clip-path="url(#clip0)">
<path d="M52.5371 0.202339C52.3059 0.31797 49.8199 2.70274 47.016 5.50664C42.6512 9.90039 41.9285 10.6953 41.8418 11.1578C41.6828 11.9961 41.8996 12.5742 42.6512 13.3691L43.3449 14.1063L30.9152 20.3066C24.0789 23.732 18.3266 26.666 18.1387 26.8539C17.9363 27.0273 17.6906 27.3598 17.575 27.5766C16.9391 28.7906 0 71.4707 0 71.832C0 72.5836 0.491406 73.3641 1.19961 73.6965C1.54648 73.8699 1.99453 74 2.21133 74C2.54375 74 45.3105 57.0031 46.4234 56.425C46.6402 56.3094 46.9727 56.0637 47.1461 55.8613C47.334 55.6734 50.268 49.9211 53.6934 43.0848L59.8937 30.6551L60.6453 31.3633C61.4402 32.1148 62.0617 32.3316 62.9 32.1582C63.5938 32.0137 73.6387 21.9977 73.8844 21.2172C74.2602 19.9453 74.7082 20.4656 64.273 9.98711C58.752 4.45156 54.5027 0.31797 54.2426 0.202339C53.6645 -0.0433578 53.1008 -0.0433578 52.5371 0.202339ZM61.0934 12.8922C65.2559 17.0547 68.6523 20.509 68.6523 20.5957C68.6523 20.7836 62.5531 26.8828 62.3652 26.8828C62.1773 26.8828 47.1172 11.8227 47.1172 11.6348C47.1172 11.4469 53.2164 5.34766 53.4043 5.34766C53.4766 5.34766 56.9453 8.74414 61.0934 12.8922ZM50.2535 40.093L43.8652 52.8262L27.6922 59.2867C18.7891 62.8422 11.4902 65.7328 11.4758 65.7184C11.4469 65.6895 15.5516 61.5559 20.5813 56.5262L29.7301 47.3773L30.4238 47.6086C34.2105 48.8949 38.243 46.4379 38.9078 42.4344C39.6016 38.2574 35.7426 34.3984 31.5656 35.0922C27.5621 35.757 25.1051 39.7895 26.3914 43.5762L26.6227 44.2699L17.4738 53.4187C12.4441 58.4484 8.31055 62.5531 8.28164 62.5242C8.26719 62.5098 11.1578 55.2109 14.7133 46.3078L21.1738 30.1348L33.8926 23.7465L46.6113 17.3727L51.6266 22.359L56.6273 27.3598L50.2535 40.093ZM33.5312 39.6016C34.1816 39.934 34.6875 40.7578 34.6875 41.4805C34.6875 42.5789 33.618 43.6484 32.5195 43.6484C31.7969 43.6484 30.973 43.1426 30.6406 42.4922C30.2793 41.7695 30.2793 41.1914 30.6406 40.4688C31.1754 39.4137 32.4328 39.0379 33.5312 39.6016Z" fill="black" fill-opacity="0.65"/>
</g>
<defs>
<clipPath id="clip0">
<rect width="74" height="74" fill="white"/>
</clipPath>
</defs>
</svg>
