<svg width="74" height="74" viewBox="0 0 74 74" fill="none" xmlns="http://www.w3.org/2000/svg">
<path d="M68.8258 0.505852C63.536 2.31249 50.5137 13.1812 33.6903 29.8312C28.3426 35.1211 24.4114 39.2113 21.0004 43.0559L18.6301 45.7152L16.65 45.7441C14.3086 45.773 12.9789 46.0766 11.2012 46.9727C8.643 48.259 6.60511 50.2969 5.34768 52.8262C4.27815 54.9797 4.06136 55.9914 3.83011 60.125C3.61331 63.8828 3.36761 65.7906 2.8762 67.7852C2.47151 69.3605 2.13909 70.1121 0.968387 72.0055L0.0144806 73.5375L1.12737 73.6676C1.7344 73.7254 4.09026 73.7832 6.3594 73.7832C9.53909 73.7687 10.8688 73.7109 12.2129 73.523C15.7106 73.0027 18.818 72.1645 21.4051 71.0371C27.302 68.4789 29.8024 64.8512 29.8313 58.8242V57.1621L31.5657 55.6445C38.8645 49.2418 47.811 40.2953 54.286 32.9531C63.9407 21.9832 71.8176 10.8109 73.552 5.66562C74.9106 1.63319 72.6848 -0.79493 68.8258 0.505852ZM68.609 6.24374C66.0508 11.5336 57.9571 22.3445 49.3574 31.9414C47.2617 34.2828 41.5239 40.3531 41.3215 40.4398C41.2781 40.4543 40.8735 40.0352 40.4399 39.5004C39.4426 38.2863 37.3758 36.2051 36.1617 35.2223C35.6703 34.8176 35.2657 34.4418 35.2657 34.384C35.2657 34.2828 41.1625 28.5305 44.8047 25.0617C51.5543 18.659 59.4313 11.866 64.0996 8.41171C66.0797 6.93749 68.9703 5.04414 69.0715 5.13085C69.086 5.15976 68.8836 5.66562 68.609 6.24374ZM33.5457 38.7199C35.0778 39.9918 36.4797 41.4227 37.477 42.7379L38.1563 43.6195L35.6559 45.9898C34.2973 47.2906 32.1004 49.3285 30.8141 50.4992L28.4438 52.6383L27.7356 51.5398C26.8828 50.2102 25.4231 48.7359 24.0934 47.8687C23.2262 47.3195 23.1395 47.2039 23.2985 47.0016C24.2813 45.7586 31.927 37.5781 32.1004 37.5781C32.1438 37.5781 32.7942 38.084 33.5457 38.7199ZM18.5867 50.2391C20.3645 50.6004 21.7086 51.3086 22.9805 52.5949C24.8016 54.4305 25.5098 56.2805 25.4953 59.1133C25.4809 62.5676 24.2668 64.5621 21.1016 66.3687C18.7457 67.7129 14.8 68.8402 10.7676 69.3172C8.98987 69.5195 6.93753 69.5918 6.93753 69.4328C6.93753 69.3895 7.0387 68.9703 7.15432 68.5078C7.58792 66.8457 7.94925 63.9117 8.09378 60.9199C8.1805 59.2434 8.31057 57.4945 8.39729 57.0176C8.6719 55.5867 9.51018 53.9535 10.5653 52.8262C12.791 50.4414 15.4071 49.5887 18.5867 50.2391Z" fill="black" fill-opacity="0.59"/>
</svg>
