<svg width="74" height="74" viewBox="0 0 74 74" fill="none" xmlns="http://www.w3.org/2000/svg">
<g clip-path="url(#clip0)">
<path d="M22.1133 0.216801C20.0176 0.73711 18.341 2.34141 17.6906 4.46602C17.5316 4.98633 17.4883 6.40274 17.4883 11.1578V17.1848L16.3031 17.8063C11.7504 20.1621 8.5707 24.5703 7.77578 29.6145L7.60234 30.7852H5.75234H3.90234V32.0137V33.2277L5.73789 33.2711L7.57344 33.3145L7.81914 34.7598C9.04766 41.6828 14.3086 46.8281 21.2316 47.8977L22.3301 48.0711L22.3734 49.9066L22.4168 51.7422H23.6309H24.8594V49.8922V48.0422L26.1313 47.8543C29.4988 47.3773 32.6496 45.7152 35.15 43.0992C37.3902 40.7434 38.8211 37.9395 39.3125 34.9043C39.4137 34.3406 39.5148 33.748 39.5438 33.5602C39.6016 33.2566 39.6594 33.2422 41.4949 33.2422H43.3738L43.3305 32.0426L43.2871 30.8574L41.4082 30.7852C39.5293 30.7129 39.5293 30.7129 39.4859 30.3516C39.2258 27.8078 38.1996 25.0762 36.7109 22.9227C35.8293 21.6508 33.8348 19.6852 32.534 18.8035C30.7129 17.5605 27.8801 16.4766 25.7988 16.2164L24.9316 16.1152L24.8594 14.2363L24.7871 12.3574L23.602 12.3141L22.4168 12.2707L22.3734 14.193L22.3301 16.1152L21.4195 16.2164C20.9281 16.2742 20.3789 16.3609 20.2344 16.4043C19.9453 16.491 19.9453 16.4188 19.9453 13.1668V9.82813H29.7734H39.6016V8.59961V7.3711H29.7734H19.9453V6.31602C19.9453 5.46328 20.0176 5.11641 20.3211 4.49492C20.7836 3.56992 21.752 2.81836 22.7637 2.60157C23.2695 2.48594 27.75 2.45704 37.5781 2.48594L51.6844 2.5293L52.4504 2.93399L53.2164 3.32422L53.8813 2.58711C54.8641 1.50313 54.8641 1.53203 54.0836 1.02617C52.4793 3.8147e-06 53.7078 0.0722694 37.5059 0.0433617C25.6543 0.0289078 22.7637 0.0578156 22.1133 0.216801ZM22.4023 19.8008V20.957H23.6309H24.8594V19.7863V18.6012L25.6543 18.7023C26.8973 18.8469 28.993 19.584 30.3371 20.3355C31.8113 21.1738 33.8492 23.0527 34.7598 24.4258C35.9305 26.1746 36.6676 28.068 36.9855 30.0914L37.1012 30.7852H35.9016H34.6875V32.0137V33.2422H35.8438H37V33.8059C37 34.5285 36.3785 36.6676 35.8438 37.8383C35.2656 39.0957 34.1383 40.6711 33.0977 41.6973L32.2305 42.55V41.9719C32.2305 40.0496 31.3199 37.6648 30.0336 36.2051C29.6 35.6992 28.0535 34.4707 27.7211 34.3551C27.6055 34.3262 27.7645 34.0516 28.1547 33.618C30.3227 31.2621 30.2359 27.6922 27.9668 25.3074C25.9434 23.1828 22.7348 22.8215 20.2633 24.4113C19.2082 25.1051 18.5723 25.8422 18.0086 27.0273C17.5895 27.8945 17.5605 28.0824 17.5605 29.5566C17.5605 31.0453 17.5895 31.2043 18.0086 32.1004C18.2688 32.6352 18.7023 33.3145 18.9914 33.6324C19.2805 33.9504 19.5117 34.2539 19.5117 34.2973C19.5117 34.3406 19.2371 34.5285 18.8902 34.7309C18.1098 35.1934 16.8379 36.4941 16.2309 37.4625C15.6238 38.4309 15.1902 39.7172 15.0457 41.1047C14.9734 41.7262 14.8723 42.2609 14.8145 42.3188C14.7566 42.3766 14.323 42.0008 13.8461 41.4805C11.9672 39.457 10.8832 37.3758 10.334 34.7887C9.98711 33.1699 9.94375 33.2422 11.2734 33.2422H12.4297V32.0137V30.7852H11.259H10.0883L10.1895 30.0191C10.4496 28.0969 11.6059 25.423 12.9211 23.732C14.2219 22.041 16.2742 20.4512 18.2543 19.6273C19.4539 19.107 21.1305 18.659 21.8676 18.659L22.4023 18.6445V19.8008ZM25.0762 26.218C27.9234 27.4176 27.9234 31.6813 25.0762 32.9676C23.8188 33.5457 21.882 33.1555 20.9281 32.1438C19.743 30.8719 19.6129 28.7039 20.6535 27.3742C21.6797 26.059 23.5441 25.582 25.0762 26.218ZM26.1746 36.3641C27.9234 37.1879 29.2531 38.9367 29.6289 40.8879C29.7012 41.3215 29.7734 42.232 29.7734 42.9258V44.1688L28.8195 44.5734C27.8223 44.9781 25.741 45.5273 25.1918 45.5273C24.8738 45.5273 24.8594 45.4695 24.8594 44.3711V43.2148H23.6309H22.4023V44.3711C22.4023 45.4406 22.3734 45.5273 22.1133 45.5273C21.4773 45.5273 19.6129 45.0648 18.6156 44.6602C18.0375 44.4145 17.5461 44.2266 17.5316 44.2266C17.5027 44.2266 17.4883 43.4605 17.4883 42.5211C17.4883 40.1941 17.8641 39.0957 19.1359 37.7371C20.4512 36.3352 21.723 35.8293 23.7754 35.8871C25.0473 35.916 25.3363 35.9738 26.1746 36.3641Z" fill="black" fill-opacity="0.58"/>
<path d="M0.867188 5.10195C0.173438 5.44883 0.144531 5.65117 0.144531 11.1C0.144531 16.4477 0.187891 16.8812 0.794922 17.1125C0.925 17.1559 4.00352 17.1992 7.6457 17.1992H14.2652L14.5688 16.8668C14.8867 16.5344 14.8867 16.4766 14.8867 11.1723C14.8867 8.22383 14.8434 5.69453 14.8 5.56445C14.5543 4.94297 14.2219 4.91406 7.55898 4.91406C2.775 4.91406 1.1418 4.95742 0.867188 5.10195ZM12.4297 11.0566V14.7422H7.51562H2.60156V11.0566V7.37109H7.51562H12.4297V11.0566Z" fill="black" fill-opacity="0.58"/>
<path d="M5.05859 11.0566V12.2852H7.51562H9.97266V11.0566V9.82812H7.51562H5.05859V11.0566Z" fill="black" fill-opacity="0.58"/>
<path d="M42.7813 5.10181C42.0586 5.46314 42.0586 5.47759 42.0586 13.5569C42.0586 21.8819 42.0442 21.7807 42.9403 22.0987C43.2727 22.2143 47.3918 22.2577 56.902 22.2577C71.3407 22.2577 71.1528 22.2721 71.5285 21.5639C71.6442 21.3616 71.6875 18.7889 71.6875 13.528V5.79556L71.3407 5.39087L70.9938 4.98618L57.061 4.95728C46.0766 4.92837 43.0703 4.95728 42.7813 5.10181ZM69.2016 13.5424L69.1582 19.7284H56.8731H44.5879L44.5446 13.5424L44.5157 7.37095H56.8731H69.2305L69.2016 13.5424Z" fill="black" fill-opacity="0.58"/>
<path d="M47.0738 9.9293C47.016 9.97266 46.9727 10.5363 46.9727 11.1578V12.2852H49.4297H51.8867V11.0566V9.82812H49.5309C48.2301 9.82812 47.1172 9.87148 47.0738 9.9293Z" fill="black" fill-opacity="0.58"/>
<path d="M54.4883 11.0566V12.2852H60.6309H66.7734V11.0566V9.82812H60.6309H54.4883V11.0566Z" fill="black" fill-opacity="0.58"/>
<path d="M47.0738 14.8434C47.016 14.8867 46.9727 15.4504 46.9727 16.0719V17.1992H56.873H66.7734V15.9707V14.7422H56.9742C51.5832 14.7422 47.1172 14.7855 47.0738 14.8434Z" fill="black" fill-opacity="0.58"/>
<path d="M54.5028 30.9585L54.5172 37.2167L51.1641 40.1796L47.8254 43.1425L46.6258 43.3737C43.186 44.053 40.541 46.6546 39.8184 50.1089C39.7028 50.6581 39.6016 51.8433 39.6016 52.7683C39.6016 55.2542 39.4715 55.5433 37.6793 57.0319C36.8989 57.6823 37.0434 58.6796 37.9684 59.0698C38.7922 59.4022 48.1289 59.2722 49.2852 58.8964C52.5516 57.8702 54.7774 55.4421 55.4711 52.1468L55.7313 50.9472L64.5911 40.9022C69.4618 35.3812 73.5665 30.6261 73.7254 30.3226C74.0579 29.6722 74.1012 27.7065 73.8122 26.9839C73.5231 26.2901 72.9016 25.6253 72.1356 25.1772C71.5575 24.8304 71.3262 24.787 70.2422 24.787C69.1582 24.787 68.927 24.8304 68.3633 25.1772C68.002 25.394 65.3137 27.6921 62.3653 30.2937L57.0176 35.0343L56.9743 29.8745L56.9454 24.7147H55.7168H54.4883L54.5028 30.9585ZM71.1528 27.5187C71.5719 27.9089 71.7598 28.4581 71.6297 28.9495C71.5575 29.253 54.6473 48.5769 54.3727 48.678C54.1704 48.7358 50.109 44.5589 50.2102 44.3854C50.3258 44.212 68.1899 28.4147 69.1582 27.6487C69.8809 27.0562 70.6036 27.0128 71.1528 27.5187ZM50.4704 48.3745L53.1731 51.0917L53.043 51.771C52.5516 54.2858 50.4125 56.2659 47.7676 56.6562C46.5969 56.8151 41.4805 56.8585 41.4805 56.6851C41.495 56.6272 41.6106 56.2226 41.7696 55.789C41.9864 55.1819 42.0442 54.5894 42.0586 53.2597C42.0586 51.2362 42.3188 49.8632 42.8825 48.837C43.3305 47.9987 44.6602 46.7124 45.4696 46.3222C46.0477 46.0476 47.1606 45.7007 47.5508 45.6862C47.6664 45.6718 48.9817 46.8858 50.4704 48.3745Z" fill="black" fill-opacity="0.58"/>
<path d="M17.4883 52.3926V55.5H9.23555H0.982813L0.563672 55.9191L0.144531 56.3383V61.5703C0.144531 66.9035 0.173438 67.1926 0.708203 67.5973C0.881641 67.7418 4.1625 67.7707 14.9734 67.7852C28.8629 67.7852 28.993 67.7852 29.3109 67.4961C29.4844 67.3371 29.6578 67.048 29.7012 66.8746C29.7445 66.7012 29.7734 64.2297 29.7445 61.3824L29.7012 56.1937L29.2965 55.8469L28.8918 55.5H24.4258H19.9453L19.9164 52.4215L19.873 49.3574L18.6879 49.3141L17.4883 49.2707V52.3926ZM27.3164 61.6426V65.3281H14.959H2.60156V61.6426V57.957H14.959H27.3164V61.6426Z" fill="black" fill-opacity="0.58"/>
<path d="M5.05859 61.6426V62.8711H8.16602H11.2734V61.6426V60.4141H8.16602H5.05859V61.6426Z" fill="black" fill-opacity="0.58"/>
<path d="M13.7305 61.6426V62.8711H19.2949H24.8594V61.6426V60.4141H19.2949H13.7305V61.6426Z" fill="black" fill-opacity="0.58"/>
<path d="M54.4594 59.2144L54.416 61.6425L43.3305 61.6858L32.2305 61.7147V62.9433V64.1718H43.3738H54.5172L54.4594 66.3831C54.4016 68.4499 54.3727 68.6522 53.9969 69.4183C53.7801 69.8663 53.3609 70.43 53.0719 70.6757C51.9879 71.5862 52.4938 71.5573 36.841 71.514C20.8125 71.4706 22.0844 71.5573 20.9281 70.3288L20.3355 69.7073L19.3383 70.271C18.8035 70.589 18.3555 70.9214 18.3555 71.0226C18.3555 71.3405 19.6273 72.6269 20.3934 73.0894C21.9688 74.0288 21.434 73.9999 37.0145 73.9999C45.9465 73.9999 51.4098 73.9421 51.9012 73.8554C54.4305 73.3784 56.4684 71.1671 56.8152 68.5366C56.873 68.0019 56.9309 65.1401 56.9453 62.1772V56.8007H55.7168H54.4883L54.4594 59.2144Z" fill="black" fill-opacity="0.58"/>
<path d="M35.9883 67.8574V69.0859H37.2168H38.4453V67.8574V66.6289H37.2168H35.9883V67.8574Z" fill="black" fill-opacity="0.58"/>
</g>
<defs>
<clipPath id="clip0">
<rect width="74" height="74" fill="white"/>
</clipPath>
</defs>
</svg>
